HIERARCHY
ROOT Hips
{
	OFFSET	0.00	0.00	0.00
	CHANNELS 6 Xposition Yposition Zposition Zrotation Xrotation Yrotation
	JOINT LeftUpLeg
	{
		OFFSET	 0.126116	-0.065224	 0.014019
		CHANNELS 3 Zrotation Xrotation Yrotation
		JOINT LeftLeg
		{
			OFFSET	 0.000000	 0.569914	 0.000000
			CHANNELS 3 Zrotation Xrotation Yrotation
			JOINT LeftFoot
			{
				OFFSET	 0.000000	 0.544423	 0.000000
				CHANNELS 3 Zrotation Xrotation Yrotation
				JOINT LeftToeBase
				{
					OFFSET	 0.000000	 0.207117	 0.000000
					CHANNELS 3 Zrotation Xrotation Yrotation
					End Site
					{
						OFFSET	 0.000000	 0.207117	 0.000000
					}
				}
			}
		}
	}
	JOINT RightUpLeg
	{
		OFFSET	-0.124023	-0.065224	 0.008373
		CHANNELS 3 Zrotation Xrotation Yrotation
		JOINT RightLeg
		{
			OFFSET	 0.000000	 0.570047	 0.000000
			CHANNELS 3 Zrotation Xrotation Yrotation
			JOINT RightFoot
			{
				OFFSET	 0.000000	 0.544354	 0.000000
				CHANNELS 3 Zrotation Xrotation Yrotation
				JOINT RightToeBase
				{
					OFFSET	 0.000000	 0.207540	 0.000000
					CHANNELS 3 Zrotation Xrotation Yrotation
					End Site
					{
						OFFSET	 0.000000	 0.207540	 0.000000
					}
				}
			}
		}
	}
	JOINT Spine
	{
		OFFSET	 0.000184	 0.117403	 0.007763
		CHANNELS 3 Zrotation Xrotation Yrotation
		JOINT Spine1
		{
			OFFSET	 0.000000	 0.137269	 0.000000
			CHANNELS 3 Zrotation Xrotation Yrotation
			JOINT Spine2
			{
				OFFSET	 0.000000	 0.156879	 0.000000
				CHANNELS 3 Zrotation Xrotation Yrotation
				JOINT LeftShoulder
				{
					OFFSET	 0.080501	 0.160143	 0.002496
					CHANNELS 3 Zrotation Xrotation Yrotation
					JOINT LeftArm
					{
						OFFSET	 0.000000	 0.164363	 0.000000
						CHANNELS 3 Zrotation Xrotation Yrotation
						JOINT LeftForeArm
						{
							OFFSET	 0.000000	 0.364576	 0.000000
							CHANNELS 3 Zrotation Xrotation Yrotation
							JOINT LeftHand
							{
								OFFSET	 0.000000	 0.360812	 0.000000
								CHANNELS 3 Zrotation Xrotation Yrotation
								JOINT LeftHandIndex1
								{
									OFFSET	 0.000000	 0.086006	 0.000000
									CHANNELS 3 Zrotation Xrotation Yrotation
									JOINT LeftHandIndex2
									{
										OFFSET	 0.000000	 0.047237	 0.000000
										CHANNELS 3 Zrotation Xrotation Yrotation
										JOINT LeftHandIndex3
										{
											OFFSET	-0.004284	 0.038165	 0.000551
											CHANNELS 3 Zrotation Xrotation Yrotation
											End Site
											{
												OFFSET	-0.004284	 0.038165	 0.000551
											}
										}
									}
								}
							}
						}
					}
				}
				JOINT Neck
				{
					OFFSET	 0.000000	 0.176489	 0.000000
					CHANNELS 3 Zrotation Xrotation Yrotation
					JOINT Head
					{
						OFFSET	 0.000000	 0.077941	 0.001747
						CHANNELS 3 Zrotation Xrotation Yrotation
						End Site
						{
							OFFSET	 0.000000	 0.077941	 0.001747
						}
					}
				}
				JOINT RightShoulder
				{
					OFFSET	-0.080363	 0.159706	-0.000306
					CHANNELS 3 Zrotation Xrotation Yrotation
					JOINT RightArm
					{
						OFFSET	 0.000000	 0.164196	 0.000000
						CHANNELS 3 Zrotation Xrotation Yrotation
						JOINT RightForeArm
						{
							OFFSET	 0.000000	 0.365611	 0.000000
							CHANNELS 3 Zrotation Xrotation Yrotation
							JOINT RightHand
							{
								OFFSET	 0.000000	 0.360648	 0.000000
								CHANNELS 3 Zrotation Xrotation Yrotation
								JOINT RightHandIndex1
								{
									OFFSET	 0.000000	 0.069977	 0.000000
									CHANNELS 3 Zrotation Xrotation Yrotation
									JOINT RightHandIndex2
									{
										OFFSET	 0.000000	 0.052305	 0.000000
										CHANNELS 3 Zrotation Xrotation Yrotation
										JOINT RightHandIndex3
										{
											OFFSET	 0.009002	 0.042196	 0.000782
											CHANNELS 3 Zrotation Xrotation Yrotation
											End Site
											{
												OFFSET	 0.009002	 0.042196	 0.000782
											}
										}
									}
								}
							}
						}
					}
				}
			}
		}
	}
}
MOTION
Frames:    9
Frame Time: 0.03333334
-0.103149	 1.234784	-0.057352	 10.302540	-7.030618	-162.874200	-162.997300	 32.389060	-15.496760	 9.675291	-32.263270	 12.760600	 19.999120	 63.283980	-20.244090	 1.129277	 26.244480	-2.646794	 169.680600	 10.072020	 56.057740	-2.752082	-32.364050	 10.500640	 27.153250	 79.890370	-23.708440	-1.831631	 35.046490	 2.970168	-6.370429	 1.086251	 57.271390	-6.496147	 8.837708	 7.978539	 3.552877	-9.003426	-6.077577	-104.033300	 2.511958	 92.951750	 57.802140	 39.270250	-16.097810	 4.757382	-0.221908	 2.500947	-2.780230	 21.040680	 44.636390	 3.894599	 55.138890	-2.237138	-8.765277	 61.412570	 9.067775	 6.619605	 34.541840	 0.048040	 4.117888	-11.286600	-3.659869	 3.837188	-9.212738	-11.289570	 104.624000	 26.349910	-97.940150	-0.826863	 34.116260	-26.884420	-25.783820	-0.962156	-2.740511	-6.089756	-0.661236	-36.266610	-4.865742	 12.888840	-0.612655	 14.074070	 36.435550	-8.834156	-8.485330	 29.565320	-1.610723
-0.102831	 1.236941	-0.054053	 8.372849	-6.161364	-166.804700	-162.620300	 29.252570	-19.864010	 9.264374	-31.161580	 12.032930	 19.178230	 64.215570	-19.459830	 1.146038	 26.472550	-2.653346	 168.261400	 9.720250	 52.640320	-2.751117	-32.355080	 10.887720	 24.890850	 78.458800	-22.233950	-1.833512	 35.068010	 2.971167	-5.638081	 2.097867	 50.616150	-5.751891	 7.747851	 7.119450	 3.469681	-7.894305	-5.233528	-104.301500	 2.417482	 92.812580	 61.728090	 41.467870	-24.995500	 6.138085	-0.225351	 9.779079	-12.264020	 21.983510	 38.776470	 3.877031	 55.231310	-2.225962	-8.731155	 61.269000	 9.021716	 6.626221	 34.682130	 0.047282	 4.122195	-10.286500	-3.277321	 2.745282	-8.721301	-9.447487	 106.301700	 25.005000	-98.005710	-4.180611	 37.638640	-19.801330	-6.807909	-0.197353	-9.803588	-23.661230	 0.562702	-44.391800	-4.795736	 12.542270	-0.585688	 14.041540	 36.235130	-8.771854	-8.487638	 29.369800	-1.596856
-0.093738	 1.237130	-0.049548	 6.485550	-5.339154	-170.986700	-161.944100	 26.352200	-24.523500	 8.855402	-30.037780	 11.510890	 17.803650	 65.004420	-18.569850	 1.149018	 26.513050	-2.654516	 167.868800	 9.288406	 49.154780	-2.655172	-31.443330	 11.029340	 24.838100	 78.173750	-22.479550	-1.671608	 33.174070	 2.887723	-4.591020	 3.112994	 40.863030	-5.156085	 6.534017	 6.487197	 3.325209	-6.685738	-4.189968	-104.794500	 2.745075	 92.767560	 51.571520	 46.365510	-18.614640	 7.678177	-0.233434	 17.419130	-10.070250	 22.527880	 38.968150	 3.529985	 52.464410	-1.943919	-8.145187	 58.505950	 8.204800	 6.525571	 32.516940	 0.056693	 4.110036	-9.554547	-2.814550	 2.001034	-7.963294	-7.080646	 108.087400	 23.381970	-97.963160	-1.980037	 36.962680	-18.976240	-8.222350	-0.198424	-17.441990	-16.024650	 2.138310	-38.166550	-4.223339	 10.545410	-0.274040	 13.549570	 32.897460	-7.776794	-8.522714	 25.290230	-1.314947
-0.078844	 1.237302	-0.044130	 4.641691	-4.453755	-175.097600	-161.389200	 23.270330	-28.876050	 8.244581	-28.308280	 10.933880	 15.718530	 65.217480	-17.281550	 1.149146	 26.514830	-2.654565	 168.013600	 8.631276	 45.766020	-2.491686	-29.848000	 11.145650	 24.814850	 78.077950	-22.910920	-1.491401	 30.969670	 2.800616	-3.393178	 3.909359	 28.727740	-3.548101	 5.118571	 5.089284	 2.713956	-5.326545	-3.129363	-105.313900	 3.144343	 92.746320	 33.182340	 52.489580	-3.741354	 9.081217	-0.240494	 24.398190	-2.862304	 21.398990	 38.251740	 3.181294	 49.230030	-1.670832	-7.607731	 55.319550	 7.397441	 6.410784	 29.973910	 0.061869	 4.090932	-8.903097	-2.353537	 1.346601	-7.196493	-4.689742	 109.825000	 21.747450	-97.860920	-1.250878	 36.267270	-18.131860	-9.605813	-0.202808	-24.420070	-4.977376	 3.295265	-31.980000	-3.563098	 8.298471	 0.104449	 13.086510	 29.050270	-6.714844	-8.535279	 20.585560	-1.003487
-0.065272	 1.237969	-0.038490	 3.256128	-3.812947	-178.353900	-161.058500	 20.724840	-32.278640	 7.593841	-26.398720	 10.255550	 13.291920	 65.004060	-15.572160	 1.149291	 26.516840	-2.654622	 168.116300	 8.398706	 43.004280	-2.375128	-28.678210	 11.198840	 24.288240	 77.955630	-22.710900	-1.356524	 29.253240	 2.739635	-2.191200	 4.221101	 17.826260	-2.711916	 4.636109	 4.279867	 2.380129	-4.594996	-2.264334	-105.779600	 3.482457	 92.732010	 28.516880	 53.788210	 0.975516	 10.123310	-0.243623	 29.791880	-3.311878	 21.675700	 37.218090	 2.854325	 45.852200	-1.427597	-7.161363	 51.948340	 6.660694	 6.292440	 27.279510	 0.060967	 4.067011	-8.382958	-1.971010	 0.806893	-6.611095	-2.724874	 111.299700	 20.368800	-97.738390	-0.477431	 36.882620	-17.621000	-10.627780	-0.204359	-29.812770	 4.221481	 3.113643	-27.075660	-3.024493	 6.493008	 0.427744	 12.783160	 25.949920	-5.912193	-8.525856	 16.821200	-0.761272
-0.048213	 1.238881	-0.030162	 2.560751	-3.427126	 179.648800	-160.395300	 18.843850	-34.359660	 6.820528	-24.040720	 8.005938	 7.631051	 64.100000	-10.243700	 1.149867	 26.524680	-2.654850	 168.883900	 8.508931	 40.922490	-2.273891	-27.640440	 10.836320	 22.898080	 77.267330	-20.691510	-1.350323	 29.173060	 2.736920	-0.761303	 4.390623	 5.954824	-1.801160	 4.289701	 3.483688	 2.091678	-4.435142	-1.767801	-106.565300	 3.835491	 92.730750	 41.860780	 47.285310	-8.577446	 11.033890	-0.241939	 34.983510	-5.389354	 21.329680	 27.583610	 1.943100	 34.854400	-0.834376	-6.255625	 40.568690	 4.728132	 5.908317	 18.178180	 0.014855	 3.997996	-8.197723	-1.655045	 0.440633	-6.523857	-1.353194	 113.021500	 18.951790	-97.619240	 2.111816	 40.104390	-16.998240	-11.481230	-0.200643	-35.003440	 3.981826	 6.174902	-27.032050	-2.790886	 5.670133	 0.593976	 12.662540	 24.525970	-5.556777	-8.517609	 15.329830	-0.666430
-0.031233	 1.239283	-0.020623	 1.988756	-3.037081	 177.735900	-159.755000	 16.944890	-36.327400	 6.026917	-21.523350	 5.636348	 2.081091	 62.830670	-4.952035	 1.150430	 26.532360	-2.655074	 169.550600	 8.898919	 38.917860	-2.226536	-27.148090	 10.445900	 21.865350	 76.790890	-19.009400	-1.344268	 29.094640	 2.734275	 0.675068	 4.172967	-5.250392	-1.419837	 4.256545	 3.011860	 2.022597	-4.444055	-1.286062	-107.334200	 4.180771	 92.734190	 53.656370	 35.041440	-14.841250	 11.489800	-0.225860	 39.225540	-10.456230	 24.369980	 18.914800	 1.259112	 24.024170	-0.496223	-5.907075	 29.348600	 3.271977	 5.538069	 9.238298	-0.088669	 3.929526	-8.016919	-1.345932	 0.084664	-6.445314	-0.010957	 114.695400	 17.569380	-97.460460	 5.763931	 43.791520	-17.239660	-12.067700	-0.193369	-39.246700	 3.167424	 8.757895	-26.462570	-2.560379	 4.865943	 0.759609	 12.555120	 23.132490	-5.216033	-8.507134	 13.871040	-0.574065
-0.019419	 1.239552	-0.012514	 1.532710	-2.703875	 176.148000	-159.542900	 15.367560	-37.900010	 5.372297	-19.375670	 3.545305	-2.139932	 61.655850	-0.703562	 1.150939	 26.539300	-2.655276	 169.794700	 9.498081	 37.278730	-2.256490	-27.460080	 10.064060	 21.563950	 76.670240	-18.047370	-1.339196	 29.028860	 2.732067	 1.754965	 3.727894	-14.333770	-1.164146	 4.261258	 2.564678	 1.995473	-4.467754	-0.890960	-107.992100	 4.471507	 92.740120	 55.857760	 28.066160	-14.650660	 11.803060	-0.214746	 42.142670	-9.715693	 24.432040	 12.024450	 0.794671	 15.376970	-0.339479	-5.868454	 20.398710	 2.255720	 5.234281	 2.079923	-0.211919	 3.867362	-7.871044	-1.085587	-0.209086	-6.380853	 1.094472	 116.084700	 16.411420	-97.296200	 7.903284	 44.780370	-16.723400	-12.479580	-0.188693	-42.164860	 2.578399	 12.923800	-26.307370	-2.375823	 4.229732	 0.893879	 12.477200	 22.029000	-4.950733	-8.497173	 12.715670	-0.501111
-0.013870	 1.240069	-0.007991	 1.417204	-2.461916	 175.211300	-159.491500	 14.369430	-38.689220	 4.978325	-18.053680	 2.592540	-3.994078	 60.796420	 1.051355	 1.151719	 26.549890	-2.655586	 169.995000	 9.765385	 36.494720	-2.272303	-27.623980	 9.653646	 18.931110	 76.741720	-15.880840	-1.335895	 28.985900	 2.730632	 2.457114	 3.415020	-21.543130	-0.728347	 4.155123	 2.202359	 1.874102	-4.411057	-0.725672	-108.574600	 4.675520	 92.739430	 54.696180	 26.024900	-14.330730	 12.142840	-0.212410	 44.269080	-6.624034	 24.940110	 9.200592	 0.738767	 13.987750	-0.334384	-5.877852	 18.991790	 2.102008	 5.183466	 0.913268	-0.235540	 3.778520	-7.842053	-0.903582	-0.364444	-6.295038	 1.578628	 116.894900	 15.625990	-97.178630	 8.032515	 44.203270	-16.052150	-12.841040	-0.187612	-44.291430	 1.058935	 13.119490	-26.412790	-2.379539	 4.268307	 0.897980	 12.481770	 22.096270	-4.966803	-8.497750	 12.778550	-0.505079
